<svg width="62" height="64" viewBox="0 0 62 64" fill="none" xmlns="http://www.w3.org/2000/svg">
<path d="M30.981 55.4167C43.8138 55.4167 54.2168 44.7834 54.2168 31.6667C54.2168 18.5499 43.8138 7.91666 30.981 7.91666C18.1483 7.91666 7.74524 18.5499 7.74524 31.6667C7.74524 44.7834 18.1483 55.4167 30.981 55.4167Z" stroke="#9C9C9C" stroke-width="2" stroke-miterlimit="10"/>
<path d="M30.9811 39.5833C36.3281 39.5833 40.6627 35.1528 40.6627 29.6875C40.6627 24.2222 36.3281 19.7917 30.9811 19.7917C25.6341 19.7917 21.2995 24.2222 21.2995 29.6875C21.2995 35.1528 25.6341 39.5833 30.9811 39.5833Z" stroke="#9C9C9C" stroke-width="2" stroke-miterlimit="10"/>
<path d="M15.4419 49.3243C16.9005 46.3932 19.1241 43.9318 21.8667 42.2126C24.6092 40.4933 27.7638 39.5834 30.981 39.5833C34.1983 39.5833 37.3528 40.4933 40.0954 42.2125C42.838 43.9317 45.0616 46.3931 46.5202 49.3243" stroke="#9C9C9C" stroke-width="2" stroke-linecap="round" stroke-linejoin="round"/>
</svg>
